<?xml version="1.0" encoding="utf-8"?>
<!-- Generator: Adobe Illustrator 23.0.6, SVG Export Plug-In . SVG Version: 6.00 Build 0)  -->
<svg version="1.1" id="squaregithub" xmlns="http://www.w3.org/2000/svg" xmlns:xlink="http://www.w3.org/1999/xlink" x="0px"
	 y="0px" viewBox="0 0 53.1 53.1" style="enable-background:new 0 0 53.1 53.1;" xml:space="preserve">
<style type="text/css">
	.st0{fill:#FFFFFF;}
</style>
<path class="st0" d="M46.5,53.1H33.1c0.1-0.4,0.1-0.9,0.1-1.3c0-2.9-0.3-5.9-1-8.8c-0.7-3-1.6-5.2-2.8-6.6c4.5-0.4,7.9-1.7,10.3-4
	c2.4-2.3,3.5-5.2,3.5-8.8c0-3.1-1.1-5.6-3.3-7.3v-4.7c0-0.3-0.2-0.7-0.6-1.1c-0.4-0.4-0.7-0.6-1.1-0.6c-0.4,0-2.5,1.2-6.2,3.6
	c-1.6-0.2-3.4-0.3-5.4-0.3s-3.8,0.1-5.4,0.3c-3.7-2.4-5.8-3.6-6.2-3.6c-0.3,0-0.7,0.2-1.1,0.6c-0.4,0.4-0.6,0.7-0.6,1.1
	c0,0.3,0,1.1-0.1,2.3c-0.1,1.2-0.1,2.1-0.2,2.6c-2,1.7-3.1,4-3.1,7.1c0,3.6,1.2,6.5,3.5,8.8c2.4,2.3,5.8,3.6,10.3,4
	c-0.2,0.2-0.4,0.6-0.7,1.1c-1.5,1.6-3.6,2.4-6.4,2.4c-0.6,0-1.1-0.2-1.7-0.7c-0.6-0.4-1.1-1-1.6-1.7c-0.5-0.7-1.1-1.3-1.7-2
	s-1.3-1.2-2.2-1.7c-0.9-0.4-1.8-0.7-2.8-0.7c0,0.3,0.2,0.6,0.5,1.1s0.8,1,1.4,1.7c0.6,0.7,1,1.4,1.4,2.2c0.9,1.8,1.8,3,2.8,3.8
	s2.2,1.2,3.8,1.2c1.7,0,3.2-0.2,4.5-0.7c-0.8,3-1.2,6.2-1.2,9.4c0,0.4,0,0.8,0.1,1.3H6.6c-1.8,0-3.4-0.6-4.7-1.9S0,48.3,0,46.5V6.6
	c0-1.8,0.6-3.4,1.9-4.7S4.8,0,6.6,0h39.8c1.8,0,3.4,0.6,4.7,1.9s1.9,2.9,1.9,4.7v39.8c0,1.8-0.6,3.4-1.9,4.7S48.3,53.1,46.5,53.1z"
	/>
</svg>
