<svg id="glider" xmlns="http://www.w3.org/2000/svg" viewBox="0 0 64 64"><defs><style>.cls-1{fill:#fff;}</style></defs><path class="cls-1" d="M54,0H10A10,10,0,0,0,0,10V54A10,10,0,0,0,10,64H54A10,10,0,0,0,64,54V10A10,10,0,0,0,54,0ZM16.25,53.27a5.52,5.52,0,1,1,5.51-5.52A5.52,5.52,0,0,1,16.25,53.27Zm15.75,0a5.52,5.52,0,1,1,5.51-5.52A5.51,5.51,0,0,1,32,53.27Zm0-31.51a5.52,5.52,0,1,1,5.51-5.51A5.51,5.51,0,0,1,32,21.76ZM47.75,53.27a5.52,5.52,0,1,1,5.52-5.52A5.52,5.52,0,0,1,47.75,53.27Zm0-15.76A5.51,5.51,0,1,1,53.27,32,5.51,5.51,0,0,1,47.75,37.51Z"/></svg>