<?xml version="1.0" encoding="UTF-8"?><svg id="a" xmlns="http://www.w3.org/2000/svg" viewBox="0 0 598.82 607.39"><defs><style>.b{fill:#fff;}.c{stroke-width:7px;}.c,.d{fill:none;stroke:#fff;stroke-miterlimit:10;}.e{opacity:.5;}.d{stroke-width:10px;}</style></defs><polygon class="d" points="270.84 220.01 273 244.98 314.05 285.85 314.47 286.27 355.53 327.14 380.5 329.17 581.89 17.02 270.84 220.01"/><path class="b" d="M198.44,218.29c-1.54-63.38,28.85-123.62,80.22-160.67,21.3-15.44,45.81-27.04,71.63-32.59,23.82-4.95,48.83-4.99,72.65-.04,15.76,3.27,31.11,8.7,45.21,16.39l-.4,.92c-7.57-2.45-15.15-4.66-22.82-6.38-58.23-13.28-123.69-2.02-171.24,34.93-37.34,28.64-63.16,71.59-71.31,117.96-1.66,9.69-2.63,19.64-2.95,29.47h-1Z"/><path class="b" d="M556.64,119.04c64.5,100.81,18.57,243.42-95.58,283.03-22.29,7.71-46.42,11-69.78,9.05v-1c33.39-2.76,65.92-12.5,94.35-29.99,28.13-17.16,52.84-40.5,69.55-69.07,29.92-50.34,34.09-114.71,11.67-168.79-3.17-7.79-6.88-15.39-11.06-22.72l.86-.52h0Z"/><g class="e"><path class="b" d="M220.19,240.54l-3.13-3.12,12.88-12.91-2.78-1.25,3.31-3.32,3.59,1.35,2.67,2.66-16.55,16.59Z"/><path class="b" d="M181.7,267.62c-.01-1.68,.72-3.25,2.19-4.73l7.52-7.54c1.49-1.49,3.07-2.23,4.74-2.21,1.67,.02,3.31,.83,4.93,2.44,1.62,1.62,2.44,3.26,2.47,4.92,.02,1.66-.71,3.24-2.21,4.74l-7.52,7.54c-1.49,1.49-3.07,2.23-4.74,2.21-1.67-.02-3.31-.83-4.92-2.44-1.62-1.62-2.44-3.26-2.45-4.94Zm7.49,2.67c.73-.13,1.49-.6,2.29-1.41l5.93-5.94c.8-.81,1.27-1.57,1.4-2.3,.13-.73-.12-1.4-.75-2.03-.63-.63-1.31-.88-2.03-.74-.73,.13-1.49,.6-2.29,1.41l-5.93,5.94c-.8,.81-1.27,1.57-1.4,2.3-.13,.73,.12,1.4,.75,2.03,.63,.63,1.31,.88,2.03,.74Z"/><path class="b" d="M147.9,301.5c-.01-1.67,.72-3.25,2.19-4.72l7.52-7.54c1.49-1.49,3.07-2.22,4.74-2.2,1.67,.02,3.31,.83,4.93,2.44,1.62,1.62,2.44,3.26,2.47,4.92,.02,1.66-.71,3.24-2.21,4.74l-7.52,7.54c-1.49,1.49-3.07,2.22-4.74,2.2-1.67-.02-3.31-.83-4.92-2.44-1.62-1.62-2.44-3.26-2.45-4.94Zm7.49,2.67c.73-.13,1.49-.6,2.29-1.41l5.93-5.94c.8-.81,1.27-1.57,1.4-2.3,.13-.72-.12-1.4-.75-2.03-.63-.63-1.31-.88-2.04-.74-.73,.13-1.49,.6-2.29,1.41l-5.93,5.94c-.8,.81-1.27,1.57-1.4,2.3-.13,.72,.12,1.4,.75,2.03,.63,.63,1.31,.88,2.03,.74Z"/><path class="b" d="M114.1,335.38c-.01-1.67,.72-3.25,2.19-4.72l7.52-7.54c1.49-1.49,3.07-2.22,4.74-2.21,1.67,.02,3.31,.84,4.93,2.45,1.62,1.62,2.44,3.25,2.47,4.92,.02,1.66-.71,3.24-2.21,4.74l-7.52,7.54c-1.49,1.49-3.07,2.22-4.74,2.21-1.67-.02-3.31-.84-4.92-2.44-1.62-1.62-2.44-3.26-2.45-4.94Zm7.49,2.67c.73-.13,1.49-.6,2.29-1.41l5.93-5.94c.8-.81,1.27-1.57,1.4-2.3,.13-.72-.12-1.4-.75-2.03-.63-.63-1.31-.88-2.03-.74-.73,.13-1.49,.6-2.29,1.41l-5.93,5.95c-.8,.8-1.27,1.57-1.4,2.3-.13,.73,.12,1.4,.75,2.03,.63,.63,1.31,.88,2.03,.75Z"/><path class="b" d="M84.98,376.08l-3.13-3.12,12.88-12.91-2.78-1.25,3.31-3.32,3.59,1.35,2.67,2.66-16.55,16.59Z"/><path class="b" d="M46.5,403.14c-.01-1.67,.72-3.25,2.19-4.72l7.52-7.54c1.49-1.49,3.07-2.22,4.74-2.21,1.67,.02,3.31,.84,4.93,2.45,1.62,1.62,2.44,3.25,2.47,4.92,.02,1.66-.71,3.24-2.21,4.74l-7.52,7.54c-1.49,1.49-3.07,2.22-4.74,2.21-1.67-.02-3.31-.84-4.92-2.44-1.62-1.62-2.44-3.26-2.45-4.94Zm7.49,2.67c.73-.13,1.49-.61,2.29-1.41l5.93-5.94c.8-.81,1.27-1.57,1.4-2.3,.13-.72-.12-1.4-.75-2.03-.63-.63-1.31-.88-2.03-.74-.73,.13-1.49,.6-2.29,1.41l-5.93,5.95c-.8,.8-1.27,1.57-1.4,2.3-.13,.73,.12,1.4,.75,2.03,.63,.63,1.31,.88,2.03,.75Z"/><path class="b" d="M17.37,443.85l-3.13-3.12,12.88-12.91-2.78-1.25,3.31-3.32,3.59,1.35,2.67,2.66-16.55,16.59Z"/></g><g class="e"><path class="b" d="M238.6,288.51l-3.13-3.12,12.88-12.92-2.78-1.25,3.31-3.32,3.59,1.35,2.67,2.66-16.54,16.59Z"/><path class="b" d="M204.82,322.39l-3.13-3.12,12.88-12.92-2.78-1.25,3.31-3.32,3.59,1.35,2.67,2.66-16.54,16.59Z"/><path class="b" d="M171.01,356.29l-3.13-3.12,12.88-12.92-2.78-1.25,3.31-3.32,3.59,1.35,2.67,2.66-16.54,16.59Z"/><path class="b" d="M132.54,383.35c-.01-1.67,.71-3.25,2.19-4.72l7.52-7.54c1.49-1.49,3.07-2.23,4.74-2.21,1.67,.02,3.31,.84,4.93,2.44,1.62,1.62,2.44,3.26,2.47,4.92,.02,1.66-.71,3.24-2.2,4.74l-7.52,7.54c-1.49,1.49-3.07,2.23-4.74,2.21-1.67-.02-3.31-.83-4.92-2.44-1.62-1.62-2.44-3.26-2.45-4.94Zm7.49,2.67c.73-.13,1.49-.6,2.29-1.41l5.93-5.94c.8-.81,1.27-1.57,1.4-2.3s-.12-1.4-.75-2.03-1.31-.88-2.04-.74c-.72,.13-1.49,.6-2.29,1.41l-5.93,5.94c-.8,.81-1.27,1.57-1.4,2.3-.13,.72,.12,1.4,.75,2.03,.63,.63,1.31,.88,2.04,.74Z"/><path class="b" d="M98.73,417.25c-.01-1.67,.71-3.25,2.19-4.72l7.52-7.54c1.49-1.49,3.07-2.22,4.74-2.21,1.67,.02,3.31,.84,4.93,2.44,1.62,1.62,2.44,3.26,2.47,4.92,.02,1.66-.71,3.24-2.2,4.74l-7.52,7.54c-1.49,1.49-3.07,2.23-4.74,2.21-1.67-.02-3.31-.83-4.92-2.44-1.62-1.62-2.44-3.26-2.45-4.94Zm7.49,2.67c.73-.13,1.49-.6,2.29-1.41l5.93-5.94c.8-.81,1.27-1.57,1.4-2.3,.13-.73-.12-1.4-.75-2.03s-1.31-.88-2.04-.74c-.72,.13-1.49,.6-2.29,1.41l-5.93,5.94c-.8,.81-1.27,1.57-1.4,2.3-.13,.73,.12,1.4,.75,2.03,.63,.63,1.31,.88,2.04,.74Z"/></g><g class="e"><path class="b" d="M237.95,366.15l-3.13-3.12,12.88-12.92-2.78-1.25,3.31-3.32,3.59,1.35,2.67,2.66-16.54,16.59Z"/><path class="b" d="M204.15,400.05l-3.13-3.12,12.88-12.92-2.78-1.25,3.31-3.32,3.59,1.35,2.67,2.66-16.54,16.59Z"/></g><g class="e"><path class="b" d="M315.18,365.95l-3.13-3.12,12.88-12.91-2.78-1.25,3.31-3.32,3.59,1.35,2.67,2.66-16.55,16.59Z"/><path class="b" d="M281.37,399.85l-3.13-3.12,12.88-12.91-2.78-1.25,3.31-3.32,3.59,1.35,2.67,2.66-16.55,16.59Z"/><path class="b" d="M242.89,426.91c-.01-1.67,.72-3.25,2.19-4.73l7.52-7.54c1.49-1.49,3.07-2.23,4.74-2.2,1.67,.02,3.31,.83,4.93,2.44,1.62,1.62,2.44,3.26,2.47,4.92,.02,1.66-.71,3.24-2.21,4.74l-7.52,7.54c-1.49,1.49-3.07,2.23-4.74,2.21-1.67-.02-3.31-.83-4.92-2.44-1.62-1.62-2.44-3.26-2.45-4.94Zm7.49,2.67c.73-.13,1.49-.6,2.29-1.41l5.93-5.94c.8-.81,1.27-1.57,1.4-2.3,.13-.72-.12-1.4-.75-2.03-.63-.63-1.31-.88-2.03-.74-.73,.13-1.49,.6-2.29,1.41l-5.93,5.94c-.8,.81-1.27,1.57-1.4,2.3-.13,.73,.12,1.4,.75,2.03,.63,.63,1.31,.88,2.03,.74Z"/><path class="b" d="M213.77,467.61l-3.13-3.12,12.88-12.91-2.78-1.25,3.31-3.32,3.59,1.35,2.67,2.66-16.55,16.59Z"/><path class="b" d="M175.29,494.67c-.01-1.67,.72-3.25,2.19-4.73l7.52-7.54c1.49-1.49,3.07-2.23,4.74-2.2,1.67,.02,3.31,.83,4.93,2.44,1.62,1.62,2.44,3.26,2.47,4.92,.02,1.66-.71,3.24-2.21,4.74l-7.52,7.54c-1.49,1.49-3.07,2.23-4.74,2.21-1.67-.02-3.31-.83-4.92-2.44-1.62-1.62-2.44-3.26-2.45-4.94Zm7.49,2.67c.73-.13,1.49-.6,2.29-1.41l5.93-5.94c.8-.81,1.27-1.57,1.4-2.3,.13-.72-.12-1.4-.75-2.03-.63-.63-1.31-.88-2.04-.74s-1.49,.6-2.29,1.41l-5.93,5.94c-.8,.81-1.27,1.57-1.4,2.3-.13,.73,.12,1.4,.75,2.03,.63,.63,1.31,.88,2.03,.74Z"/></g><g class="e"><path class="b" d="M361.87,384.57l-3.13-3.12,12.88-12.91-2.78-1.25,3.31-3.32,3.59,1.35,2.67,2.66-16.55,16.59Z"/><path class="b" d="M323.39,411.63c-.01-1.67,.72-3.25,2.19-4.73l7.52-7.54c1.49-1.49,3.07-2.22,4.74-2.21,1.67,.02,3.31,.84,4.92,2.44,1.62,1.62,2.44,3.26,2.47,4.92,.03,1.66-.71,3.24-2.2,4.74l-7.52,7.54c-1.49,1.49-3.07,2.22-4.74,2.2-1.67-.02-3.31-.83-4.92-2.44-1.62-1.62-2.44-3.26-2.45-4.94Zm7.49,2.67c.73-.13,1.49-.6,2.29-1.41l5.93-5.95c.8-.8,1.27-1.57,1.4-2.3,.13-.72-.12-1.4-.75-2.03-.63-.63-1.31-.88-2.04-.74-.73,.13-1.49,.6-2.29,1.41l-5.93,5.94c-.8,.81-1.27,1.57-1.4,2.3-.13,.72,.12,1.4,.75,2.03,.63,.63,1.31,.88,2.03,.74Z"/><path class="b" d="M289.6,445.51c-.01-1.67,.72-3.25,2.19-4.72l7.52-7.54c1.49-1.49,3.07-2.22,4.74-2.21,1.67,.02,3.31,.84,4.93,2.45,1.62,1.62,2.44,3.25,2.47,4.92,.02,1.66-.71,3.24-2.21,4.74l-7.52,7.54c-1.49,1.49-3.07,2.22-4.74,2.21-1.67-.02-3.31-.84-4.92-2.44-1.62-1.62-2.44-3.26-2.45-4.94Zm7.49,2.67c.73-.13,1.49-.6,2.29-1.41l5.93-5.94c.8-.81,1.27-1.57,1.4-2.3,.13-.72-.12-1.4-.75-2.03-.63-.63-1.31-.88-2.03-.74-.73,.13-1.49,.6-2.29,1.41l-5.93,5.94c-.8,.81-1.27,1.57-1.4,2.3s.12,1.4,.75,2.03c.63,.63,1.31,.88,2.03,.74Z"/><path class="b" d="M255.8,479.38c-.01-1.68,.72-3.25,2.19-4.73l7.52-7.54c1.49-1.49,3.07-2.22,4.74-2.21,1.67,.02,3.31,.84,4.92,2.44,1.62,1.62,2.44,3.26,2.47,4.92,.02,1.66-.71,3.24-2.21,4.74l-7.52,7.54c-1.49,1.49-3.07,2.23-4.74,2.21-1.67-.02-3.31-.83-4.92-2.44-1.62-1.62-2.44-3.26-2.45-4.94Zm7.49,2.67c.72-.13,1.49-.6,2.29-1.41l5.93-5.94c.8-.8,1.27-1.57,1.4-2.3,.13-.73-.12-1.4-.75-2.03-.63-.63-1.31-.88-2.04-.74-.72,.13-1.49,.6-2.29,1.41l-5.93,5.94c-.8,.81-1.27,1.57-1.41,2.3-.13,.72,.12,1.4,.75,2.03,.63,.63,1.31,.88,2.04,.74Z"/><path class="b" d="M221.98,513.29c-.01-1.67,.72-3.25,2.19-4.72l7.52-7.54c1.49-1.49,3.07-2.22,4.74-2.21,1.67,.02,3.31,.84,4.92,2.45,1.62,1.62,2.44,3.25,2.47,4.92,.02,1.66-.71,3.24-2.21,4.74l-7.52,7.54c-1.49,1.49-3.07,2.22-4.74,2.21-1.67-.02-3.31-.84-4.92-2.44-1.62-1.62-2.44-3.26-2.45-4.94Zm7.49,2.67c.72-.13,1.49-.6,2.29-1.41l5.93-5.94c.8-.81,1.27-1.57,1.4-2.3,.13-.72-.12-1.4-.75-2.03-.63-.63-1.31-.88-2.04-.74-.72,.13-1.49,.6-2.29,1.41l-5.93,5.94c-.8,.81-1.27,1.57-1.41,2.3-.13,.73,.12,1.4,.75,2.03,.63,.63,1.31,.88,2.04,.74Z"/><path class="b" d="M188.19,547.16c-.01-1.68,.71-3.25,2.19-4.73l7.52-7.54c1.49-1.49,3.07-2.23,4.74-2.21s3.31,.83,4.93,2.44c1.62,1.62,2.44,3.26,2.47,4.92,.02,1.66-.71,3.24-2.21,4.74l-7.52,7.54c-1.49,1.49-3.07,2.23-4.74,2.21-1.67-.02-3.31-.83-4.92-2.44-1.62-1.62-2.44-3.26-2.45-4.94Zm7.49,2.67c.73-.13,1.49-.6,2.29-1.41l5.93-5.94c.8-.8,1.27-1.57,1.4-2.3s-.12-1.4-.75-2.03c-.63-.63-1.31-.88-2.03-.74-.73,.13-1.49,.6-2.29,1.41l-5.93,5.94c-.8,.81-1.27,1.57-1.4,2.3-.13,.72,.12,1.4,.75,2.03,.63,.63,1.31,.88,2.03,.74Z"/><path class="b" d="M159.07,587.85l-3.13-3.12,12.88-12.91-2.78-1.25,3.31-3.32,3.59,1.35,2.67,2.66-16.55,16.59Z"/></g><path class="b" d="M476.93,224.38c-2.18,28.32-7.56,56.3-13.71,83.98l-.33,1.43-1.02,1c-12.78,12.7-25.92,25.05-39.64,36.74-7.21-8.29-14.29-16.74-20.79-25.61,8.08,5.93,15.81,12.32,23.39,18.86h-4.53c11.03-12.78,22.61-25.07,34.51-37.04l-1.34,2.44c1.53-6.91,3.16-13.8,4.85-20.68,5.23-20.63,10.94-41.24,18.6-61.12h0Z"/><path class="b" d="M375.93,123.38c-19.89,7.66-40.49,13.37-61.12,18.6-6.88,1.69-13.76,3.32-20.68,4.85l2.44-1.34c-11.97,11.9-24.26,23.48-37.04,34.51v-4.53c6.54,7.58,12.94,15.31,18.86,23.39-8.87-6.5-17.33-13.58-25.61-20.79,11.69-13.71,24.04-26.86,36.74-39.64l1-1.02,1.43-.33c27.68-6.15,55.66-11.53,83.98-13.71h0Z"/><polygon class="c" points="424.4 207.71 450.41 181.59 470.25 129.12 417.82 149.2 391.8 175.32 424.4 207.71"/><path class="b" d="M282.12,285.81c-7.24,6.42-15.02,11.97-22.99,17.37l.84-6.12c3.8,3.25,7.53,6.57,11.19,9.97,10.87,10.11,21.51,21.04,31.17,32.31l-6,.68c5.73-7.59,11.58-14.98,18.27-21.8-3.73,10.4-8.77,20.17-13.8,29.95-16.56-13.91-32.21-29.22-46.3-45.62l-3.55-4.13c10.2-4.66,20.41-9.31,31.18-12.6h0Z"/></svg>