<svg id="Layer_1" data-name="Layer 1" xmlns="http://www.w3.org/2000/svg" viewBox="0 0 302.91 44.87"><defs><style>.cls-1{fill:#fff;}</style></defs><title>haxor_no-white</title><path class="cls-1" d="M4.76,2.44l1.15.17h6.74a1.1,1.1,0,0,0,.63-.17c.67.15,1,.31,1,.49v12.3a.31.31,0,0,1-.34.35H12.3c-.21,0-.31.13-.31.31v.17c0,.22.43.38,1.29.49a1.35,1.35,0,0,1,.66-.17,1.2,1.2,0,0,1,.34.66l-.17.34c0,.25.33.47,1,.66,0,1.53.22,2.3.66,2.3.88,0,1.32.05,1.32.14l.83-.14H31.18a6,6,0,0,0,.17-.66,1.18,1.18,0,0,0-.17-.49l.17-.83a1.05,1.05,0,0,1-.17-.49h-.83c-.22,0-.32-.11-.32-.34v-1H25c-.23,0-.34-.1-.34-.31v-.52c2-.09,3.5-.14,4.44-.14h.66c.21,0,.32-.12.32-.35V2.93c0-.21.14-.32.32-.32h11.5v12l.17.83-.35.17H39.21l-1,.14a1.85,1.85,0,0,0-.8-.14h-.66c-.23,0-.34.13-.34.31v.17c0,.22.14.32.34.32,2,.12,3.71.17,5.08.17,0,.12,0,.17.17.17l-.17.81c0,.23.44.4,1.31.51V29.52l.15.31.34-.14h.66c.65.06,1,.23,1,.49V31c0,.14-.16.31-.49.48a6,6,0,0,0-.66-.17l-1,.17v3.62c0,.26-.44.47-1.31.63v9.87L42,46.75l-.49.32H34.62c-.93,0-2.4,0-4.42-.15L30,46.58V35.74c0-.21.14-.32.32-.32h.83l.17-1.14a1.3,1.3,0,0,0-.17-.66,14.55,14.55,0,0,1,.34-2.3l.32.17h1c.17,0,.33-.16.49-.48v-.83c0-.23-.65-.39-1.95-.49L31,29l-.32.17H27.08A8.28,8.28,0,0,1,25.61,29a1.3,1.3,0,0,1-.66.17L24.61,29a1.35,1.35,0,0,1-.66.17c-.1,0-.15-.06-.15-.17l-.34.17H18.87l-1-.17a1.63,1.63,0,0,1-.83.17H15.6c-.23,0-.34.14-.34.32v5.59a.32.32,0,0,0,.34.31h1a1.25,1.25,0,0,0,.66-.17c.88.12,1.31.28,1.31.49v.17a.3.3,0,0,1-.34.34H13.94l-.81.15V46.75c0,.21-.11.32-.34.32h-7c-.93,0-2.4,0-4.42-.15l-.17-.34V44.46c0-.12.05-.17.17-.17L1.15,44v-7.4c0-.21.14-.32.31-.32h.18q.48,0,.48.15L3,36.25H5.74l.83-.17v-.34a.3.3,0,0,0-.34-.32H3.61c-.22,0-.34-.1-.34-.31V18.19l-1-.66c0-.65-.1-1-.31-1H.32A.28.28,0,0,1,0,16.24v-.18c0-.22.14-.34.32-.34H1.81c.16,0,.32-.16.48-.49v-9a1.16,1.16,0,0,1,.18-.66,1.26,1.26,0,0,1-.18-.66v-2a.33.33,0,0,1,.35-.32H4.1C4.54,2.61,4.76,2.56,4.76,2.44ZM27.91,29.83h1.46c.23.05.34.17.34.35V31c0,.21-.11.31-.34.31-1.2,0-1.81-.16-1.81-.49h.17l-.17-.34v-.31C27.6,30,27.71,29.83,27.91,29.83Z" transform="translate(0 -2.37)"/><path class="cls-1" d="M57.13,2.39h9.74c.2,0,1.08,2.35,2.66,6.94l.49.31h1.66q.43.34,3.95,10.6l1.18,3.3-.35.17h-3.8v.17c0,.58.33.91,1,1l1-.14h.14q.72.36,4.64,12.55l-.34.17a3.29,3.29,0,0,0-.66-.17c-.1,0-.14.05-.14.17l-1.18-.17h-.83a.31.31,0,0,0-.31.34c.58,1.76,1,2.63,1.14,2.63h3.32c.22,0,.32.15.32.35v.14c0,.23-.1.34-.32.34H76.81a1.16,1.16,0,0,1-.66-.17,1.31,1.31,0,0,1-.69.17H72l-1.15-.17-.17.35a.32.32,0,0,0,.34.31h9.91c.33,0,1,1.83,2.15,5.47v.17H70.68q-.27,0-2-5.64H59.94a1.53,1.53,0,0,1-.66-.14,1.59,1.59,0,0,1-.66.14c-.23,0-.34-.1-.34-.31.11,0,.17-.06.17-.18,2-.11,3.52-.17,4.47-.17h5.29a.28.28,0,0,0,.32-.31L68,40.23H64.72c-.13,0-.45-.49-1-1.48H62.43v.17c0,.09,0,.53.14,1.31H61.08c-.11,0-.49-.49-1.14-1.48h-9.6c-.63,0-1,.43-1.15,1.31l.32.17h2.81c.23,0,.34.15.34.35v.14l-2.15,6.47H37.94V47l2.32-6.61-5-.18c-.22,0-.34-.1-.34-.31.55-1.78.95-2.66,1.17-2.66H40.6c.8,0,1.34-.94,1.64-2.81.19,0,.75-1.39,1.66-4.13L45.73,25v-.17H44.07c-.23-1-.27-1.38-.12-1.07q-.23-.24,4.41-.24c.17,0,1-2.29,2.64-6.77L53.32,10V9.81h-.83V9.64a45.94,45.94,0,0,1,2.66-7.1Zm5.3,14.38q-1.78,6.94-2.49,6.94H56.13c-.21,0-.38.33-.49,1h1c.65.06,1,.23,1,.49Q56,30.3,56,30.49l.83.15L58,30.49a1.24,1.24,0,0,0,.49.15l1-.15c.1,0,.14.05.14.15l.83-.15h2.81c.12,0,.17.05.17.15,1.11-.1,1.66-.26,1.66-.49V30a23.24,23.24,0,0,1-1.49-4.3c0-.57-.49-.89-1.49-1a1.27,1.27,0,0,0-.34-.83c0-.23.17-.34.34-.34h2.81q-.83-3-2.15-6.77Z" transform="translate(0 -2.37)"/><path class="cls-1" d="M71.24,2.44H84c.34.12,1.94,2.48,4.79,7.11v.31h-1v.35h2c.78.68,1.17,1.22,1.17,1.63a1.19,1.19,0,0,1-.51.17v.17a6.77,6.77,0,0,1,1.32,2.15h.83c.67.44,1,.88,1,1.32h.32c.32-.07.49-.46.49-1.17-.48,0-1-.6-1.47-1.81L94.34,11A100.26,100.26,0,0,1,100,2.44h12.72c.21,0,.32.14.32.32l-5.76,8.59A8.9,8.9,0,0,0,104.91,14v.34c.32,0,.49.11.49.32l-1,1.66v.17h1.15c.22,0,.34.14.34.32l-.34.49c.78,0,1.17.11,1.17.34l-.34.17h-1.66l-.32-.17c-.73,1.09-1.29,1.63-1.66,1.63q-.83.61-3.3,4.81,8.21,12.51,11.72,17.48v.17c0,.17-.28.33-.83.49a35.83,35.83,0,0,1,2.81,4.62,5.8,5.8,0,0,1-1.49.34V47l-.32.17h-6.27q-5.62,0-5.62-.83A30.67,30.67,0,0,0,97,42.21,1.91,1.91,0,0,1,98,42v-.32l-3-4.61a4.05,4.05,0,0,1-.83-1.83L95,34a3.52,3.52,0,0,0-1-1.49l-2.15,3.15a15.79,15.79,0,0,1-3.3,4.79,1.1,1.1,0,0,0-.48-.18c-.12,0-.17.06-.17.18a1.09,1.09,0,0,1-.49-.18c-1.14.12-2,.18-2.66.18h-.32v.31h3.78c.23,0,.34.15.34.34a1.34,1.34,0,0,1-1.31,1c-.74,0-1.35.67-1.84,2a18.2,18.2,0,0,1-2.29,3.13H75.71c-.9,0-1.95-.06-3.15-.17l-.32.17c-.88-.12-1.32-.23-1.32-.34l-.34.17h-.17a.29.29,0,0,1-.32-.32c2-3.09,3.19-4.64,3.47-4.64a1.53,1.53,0,0,0,1.64-1,1.28,1.28,0,0,0-.49-.17c-.21,0-1.43,0-3.64-.17v-.14c0-.23.15-.35.34-.35a2.21,2.21,0,0,1,1.15.18,7.91,7.91,0,0,1,1.49-.18h1.8q5.24-8.19,10.75-16a40.61,40.61,0,0,0-3.15-4.79.31.31,0,0,1,.34-.31L83,17.8l.34-.17h.32a.15.15,0,0,1,.17.17l.32-.17h.34a.15.15,0,0,1,.17.17,1.16,1.16,0,0,1,.66-.17v-.34H83.79a1.73,1.73,0,0,0-1.32-.81H81.3c-.88-1.43-1.76-2.15-2.64-2.15a13.84,13.84,0,0,0-1.49-2.15,1.35,1.35,0,0,1,.66-.17v-.32a2.31,2.31,0,0,0-2.29-1.48l-.34.14a8.89,8.89,0,0,0-1.32-.14V9.86h1.66V9.69a77.53,77.53,0,0,0-4.62-6.93C71,2.55,71.06,2.44,71.24,2.44Zm7.59,14.19h.66c.67.08,1,.25,1,.51v.15H79c-.16,0-.32-.17-.48-.49Zm8.08,6.76v.17h.35v-.17Zm.17-13.53v.35a.31.31,0,0,0,.35-.35Z" transform="translate(0 -2.37)"/><path class="cls-1" d="M131.64,2.44a18.05,18.05,0,0,1,9.62,2.42,1.38,1.38,0,0,1-.63.14v.32c.39,0,1.87,1,4.46,3A3.55,3.55,0,0,1,147,9h1.78l.78.17v.17a.28.28,0,0,1-.31.32h-.81c-.1,0-.14-.06-.14-.17a1.58,1.58,0,0,1-.81.17v.14A26,26,0,0,1,153,20.73l-.46.31h-3.86v.18a13,13,0,0,1,2.74.14,1.69,1.69,0,0,1,.8-.14h.32c.42,0,.64,1,.64,3.05,0,.21.13.31.31.31h1.61a.13.13,0,0,1,.15.15l.34-.15h.15c.65.07,1,.22,1,.47a21.8,21.8,0,0,1-3.06,10.77l-.31.14h-3.06l-.66.49H148c-.21,0-.32.14-.32.32,1.17,0,1.76,0,1.76.17a22.21,22.21,0,0,1-11.55,9.13,28.12,28.12,0,0,1-6.91,1h-1.76a6.4,6.4,0,0,1-2.56-.35,1.09,1.09,0,0,1-.49.18q-7-1.2-11.06-4.67a28.45,28.45,0,0,1-5-5.27,1.1,1.1,0,0,0-.63-.17h-1.44v-.32h1.58c0-.32.12-.49.35-.49h2.07l.81-.14a21.84,21.84,0,0,1-2.74-8.67v-.49l.17-.32c.1,0,.15.06.15.17,1.61-.11,2.79-.17,3.54-.17h2.39v-.17a.28.28,0,0,0-.32-.32H110.3c-.13,0-.4-.37-.8-1.12h-2.74c-.21,0-.31-.1-.31-.32s.43-.37,1.29-.48v-.64a1.29,1.29,0,0,1-.49-.15,1.24,1.24,0,0,1-.49.15,1.38,1.38,0,0,1-.14-.49,24.11,24.11,0,0,1,4.15-11.2c.94-1.29,1.8-1.93,2.58-1.93,1.39,0,2.08-.16,2.08-.49a2,2,0,0,0-1-.32h-.17L113.5,9l-.15-.32.15-.32c-.42,0-.63-.1-.63-.31A35.52,35.52,0,0,1,117.36,5h1.76Q123.41,2.45,131.64,2.44ZM107.25,25.85H109c.21,0,.32.14.32.32l-.32.17h-1.76Zm1,4.81h1l.15.81-.47.32h-.49q-.32,0-.48-1Zm10.11-8.17v.31l1,.66v.32a.3.3,0,0,1-.34.32h-.79v.48H121c.18,0,.35.38.49,1.13,2.3.1,4,.14,5.13.14h1.27v.32c0,.23-.11.34-.32.34a1,1,0,0,0-.46-.17.15.15,0,0,0-.17.17l-.81-.17c-.39,0-1.89.06-4.49.17v.78a13.52,13.52,0,0,0,4,7.09c1.19.81,1.79,1.29,1.79,1.44l-.32.14H124.9l.15.32v.17h-1v.32H126a18.18,18.18,0,0,0,3.83.8,15.36,15.36,0,0,0,3-.49.28.28,0,0,0-.32-.31h-.8v-.32h1.75c.12,0,.87-.16,2.25-.49h1.61a1.41,1.41,0,0,0,.64-.14,1.38,1.38,0,0,0,.49.14q3.15-1.34,5.61-5.93a25.7,25.7,0,0,0,1-3.69V25.05c0-.18-.53-.33-1.58-.47l-.32.15h-1.12c-.44,0-.66-1.06-.66-3.2l-.78-.17h-5.47V21c1.61-.09,2.79-.14,3.54-.14h2.39v-.17a13,13,0,0,0-4.81-6.57c-2.43-1.5-4.4-2.25-5.93-2.25q-6.72,0-10.92,6.89A13.67,13.67,0,0,0,118.31,22.49ZM127,28.91h.17c.21,0,.32.13.32.31v.49a.29.29,0,0,1-.32.32H127a.29.29,0,0,1-.32-.32v-.49C126.69,29,126.8,28.91,127,28.91Zm19.72-2.4-.14.32V27h.14a.29.29,0,0,1,.32-.32v-.15Z" transform="translate(0 -2.37)"/><path class="cls-1" d="M157.89,2.37c.21,0,.31.06.31.17,1.66-.11,2.88-.17,3.67-.17h11.57q6.3,0,8.44,1.15a3.2,3.2,0,0,1,1.84,1,1.21,1.21,0,0,0-.18.66q2.6,1.25,4.47,5.46a18.68,18.68,0,0,1,1.17,5.3c0,.41-.16,1.74-.48,4,.65,0,1,.12,1,.34a14.2,14.2,0,0,1-5.95,7.62l-2.49,1V29a20,20,0,0,1,1.83,2.66,1.91,1.91,0,0,1-.83.32l.17.34v.17c-2,.1-3.33.15-4,.15v.17c0,.22.14.34.34.34h4.13L184.38,35a2.08,2.08,0,0,1,2.14,1.66v.17c-.55,0-.83.11-.83.34q5.16,7.4,5.15,7.62c-.43.08-.65.18-.65.31a8.75,8.75,0,0,1,1.14,2l-.31.15h-8.31c-.92,0-2.41-.05-4.46-.15a16.85,16.85,0,0,1-1.32-2,1.61,1.61,0,0,1,.83-.17v-.14q-4.81-7.31-4.81-8h.66v-.35a2,2,0,0,0-2-1.63c-.86-1.11-1.53-1.66-2-1.66h-3V34a.13.13,0,0,1-.15.15l.15.34v7.61h1.83c.23,0,.34.15.34.35s-.11.31-.34.31h-1.83c0,.56-.05.83-.15.83l.15.35v2a1.4,1.4,0,0,1-.15.66,1.27,1.27,0,0,1,.15.51l-.32.15h-6.78q-1.67,0-5-.15v-4c0-.23.14-.35.34-.35h1.8v-.48h-1.8a.31.31,0,0,1-.34-.35V33.35l-.83-.17h-3.3a.3.3,0,0,1-.34-.34l.34-.17c2.75-.05,4.13-.16,4.13-.32,0-.34.11-.51.34-.51a1.18,1.18,0,0,0,.49.17l.17-.32V20.41c0-.21.13-.32.31-.32h.83l.17-1a1.2,1.2,0,0,0-.48-.17c-1,.12-1.53.17-1.66.17a1.17,1.17,0,0,0-1.32-1.32v-.83l1.15-.66V5.18l1-.66V2.86c0-.21.13-.32.31-.32h1.18A1.63,1.63,0,0,0,157.89,2.37Zm-.66,16.72v.17h.31v-.17Zm.83,0v.17h.31v-.17Zm4.12,13.58v.17c0,.22.15.34.34.34h3a.3.3,0,0,0,.32-.34v-.17Zm4.47-21.51c0,.09-.05.14-.15.14q.15,1.66.15,2.49v1q0,.18-.15.18l.15.31v.17c0,1-.44,1.49-1.32,1.49v1c.88.07,1.32.23,1.32.49h-.15a1.29,1.29,0,0,1,.15.49h4v.34h-1.49l-.66.83h-.83v1.66h5.13q3.34,0,4.49-1.66c1.09,0,1.64-.39,1.64-1.17h-1.49l-.32-.15a7.69,7.69,0,0,0,.32-2V15.45c0-1.15-1-2.42-3-3.8-.25-.23-1.34-.4-3.3-.49l-.34.14-.34-.14c-.1,0-.15.05-.15.14a6.43,6.43,0,0,0-.68-.14c-1,.09-1.51.14-1.64.14A10.76,10.76,0,0,0,166.65,11.16ZM167.16,32l-.34-.17c0,.22-.1.34-.32.34a1.24,1.24,0,0,1,.15.49q1.66-.15,2.49-.15h.17l.32.15.68-1.15c-.44-1-.71-1.49-.83-1.49H168c-.22,0-.4.66-.51,2Zm8.28,13.08h.32a1.09,1.09,0,0,0,.34.66v.34c-.15,0-.37-.29-.66-.83Zm1.15,1.66h.17v.34h-.17Zm12.77-27.83h.48v.34h-.48Zm1.14,0H191v.34h-.52Zm.83,0h1.49v.34h-1.49Z" transform="translate(0 -2.37)"/><path class="cls-1" d="M191.63,41.43c.21,0,.31.14.31.32v.14c0,.22-.1.32-.31.32a.28.28,0,0,1-.32-.32v-.14C191.34,41.54,191.45,41.43,191.63,41.43Zm7.56-4.25h3.15q2.29,0,3.79,2.66V40c-.21,0-.32.14-.32.32l.15,1.1a1.13,1.13,0,0,1-.47.15v.63c.31,0,.47.11.47.32v.15c0,2.24-1.26,3.71-3.76,4.41h-3.15A4.65,4.65,0,0,1,194.31,44c0-1.13-.36-1.76-1.1-1.91q0-.43,1-.78c.06-.94.48-1.42,1.24-1.42.33-1,1.33-1.83,3-2.51Z" transform="translate(0 -2.37)"/><path class="cls-1" d="M207.2,14.48h.32c.23,0,.34.16.34.34s-.28.41-.83.49l-.17-.32v-.17C206.89,14.59,207,14.48,207.2,14.48Zm5.93-12q1.59,0,7.26.17,5.78,8.48,6.44,8.74c.42,0,1,.39,1.81,1.15h5.3a.32.32,0,0,1,.31.34.28.28,0,0,1-.31.32h-.52a1.45,1.45,0,0,1-.66-.15,1.34,1.34,0,0,1-.66.15,1.38,1.38,0,0,1-.65-.15l-1,.15h-1l-.32-.15-.17.32q2,2.61,9.57,13.7l-.83.34a22,22,0,0,0,3,3.95l.17-.83v-.83a4,4,0,0,0-1-2.29c.55-.12.83-.23.83-.34a4.54,4.54,0,0,1-.83-1.64,1.18,1.18,0,0,1,.49-.17,1.87,1.87,0,0,1-.49-1.15V15.31c-.56,0-.83-.05-.83-.15l-.32.15c-.23,0-.34-.11-.34-.32v-.17c0-.23.15-.34.34-.34h1.15v-3c-.67,0-1-.11-1-.34V2.93l.17-.32c2.2-.11,3.85-.17,5-.17h5.94a.15.15,0,0,1,.17.17l.34-.17a.33.33,0,0,1,.32.34v8.57c.71,0,1.1.17,1.17.49v2.32c0,.16-.17.33-.51.49h-1v.51h1c.16,0,.33.16.51.49V26.88l-1.17.66V34c0,.15-.33.37-1,.66l.15,1.17v4c.55,0,.83.1.83.31v6.11l.17.83-.34.17h-7.43c-1.09,0-2.74-.06-4.95-.17q-4.54-7-5.28-7.25c-.5,0-1.05-.61-1.63-1.83-1.66-2.14-2.49-3.34-2.49-3.62h.49V34l-4.62-6.59c.56-.12.83-.23.83-.34l-2.32-3.3V21.41c0-.62-.6-1.72-1.8-3.29h-.17v8.76l-1,.66v.32h1.81a.31.31,0,0,1,.31.34v.49q0,.24-.48.48h-1.64l-.17,2v5l.17.83a1.54,1.54,0,0,1-1,.32v1l.83.66v5.61l.17,1a1.3,1.3,0,0,0-.17.66l.17.83-.34.17h-7.25c-1,0-2.44-.06-4.47-.17l-.17-.32v-.17c0-.12.05-.17.17-.17L208,46v-7.1l-.81-.66V37.6l.81-.66V29.52c0-.17.17-.34.51-.52H210c.22,0,.34-.1.34-.31V28.2a.3.3,0,0,0-.34-.34h-1.64c-.23,0-.34-.11-.34-.32s.14-.34.34-.34h.83v-.32a1.78,1.78,0,0,1,.15-.83l-.15-.83.15-.66c0-.11-.05-.17-.15-.17l.15-.83v-.32q0-.66-.15-.66l.15-1.17v-.66c0-1.43-.05-3.29-.15-5.59l.15-.34-.15-.34c.1-.88.26-1.32.49-1.32h1.49c.76,0,2-.05,3.61-.15v-.34h-.15a7.52,7.52,0,0,1-1.83-.17,14.06,14.06,0,0,1-2.15.17c-1.09,0-1.63-.38-1.63-1.15-.67,0-1-.16-1-.48V2.93l.17-.32C210.54,2.5,212.19,2.44,213.13,2.44Zm23.76,12h.17c.23,0,.34.16.34.34V15c0,.21-.11.32-.34.32s-.33-.16-.49-.49C236.6,14.59,236.71,14.48,236.89,14.48ZM241,26.05a.32.32,0,0,0,.34.32v-.32Zm.65.49v.34h.18v-.34Z" transform="translate(0 -2.37)"/><path class="cls-1" d="M277.88,2.44a18.05,18.05,0,0,1,9.62,2.42,1.38,1.38,0,0,1-.63.14v.32q.58,0,4.46,3a3.55,3.55,0,0,1,1.93.64H295l.79.17v.17a.29.29,0,0,1-.32.32h-.81c-.1,0-.14-.06-.14-.17a1.58,1.58,0,0,1-.81.17v.14a26,26,0,0,1,5.44,10.92l-.46.31h-3.86v.18a13,13,0,0,1,2.74.14,1.69,1.69,0,0,1,.8-.14h.32c.42,0,.64,1,.64,3.05,0,.21.13.31.31.31h1.61a.13.13,0,0,1,.15.15l.34-.15h.15c.65.07,1,.22,1,.47a21.8,21.8,0,0,1-3.06,10.77l-.31.14h-3.06l-.65.49h-1.59c-.21,0-.32.14-.32.32,1.17,0,1.76,0,1.76.17a22.21,22.21,0,0,1-11.55,9.13,28.12,28.12,0,0,1-6.91,1h-1.76a6.4,6.4,0,0,1-2.56-.35,1.09,1.09,0,0,1-.49.18q-7.05-1.2-11.06-4.67a29.13,29.13,0,0,1-5-5.27,1.1,1.1,0,0,0-.63-.17H254.3v-.32h1.58c0-.32.12-.49.35-.49h2.07l.81-.14a21.84,21.84,0,0,1-2.74-8.67v-.49l.17-.32c.1,0,.15.06.15.17,1.61-.11,2.79-.17,3.54-.17h2.39v-.17a.28.28,0,0,0-.32-.32h-5.76c-.13,0-.4-.37-.8-1.12H253c-.21,0-.31-.1-.31-.32s.43-.37,1.29-.48v-.64a1.29,1.29,0,0,1-.49-.15,1.24,1.24,0,0,1-.49.15,1.38,1.38,0,0,1-.14-.49A24.11,24.11,0,0,1,257,11.6c.94-1.29,1.8-1.93,2.58-1.93,1.39,0,2.08-.16,2.08-.49a2,2,0,0,0-.95-.32h-.17l-.81.15-.15-.32.15-.32c-.42,0-.63-.1-.63-.31A35.52,35.52,0,0,1,263.6,5h1.76Q269.65,2.45,277.88,2.44ZM253.49,25.85h1.76c.21,0,.32.14.32.32l-.32.17h-1.76Zm.95,4.81h1l.15.81-.47.32h-.49q-.31,0-.48-1Zm10.11-8.17v.31l1,.66v.32a.3.3,0,0,1-.34.32h-.79v.48h2.89c.17,0,.34.38.48,1.13,2.3.1,4,.14,5.13.14h1.27v.32c0,.23-.11.34-.32.34a1,1,0,0,0-.46-.17.15.15,0,0,0-.17.17l-.81-.17c-.39,0-1.89.06-4.49.17v.78a13.52,13.52,0,0,0,4,7.09c1.19.81,1.79,1.29,1.79,1.44l-.32.14h-2.25l.15.32v.17h-1v.32h1.93a18.18,18.18,0,0,0,3.83.8,15.36,15.36,0,0,0,3-.49.28.28,0,0,0-.32-.31H278v-.32h1.76c.11,0,.86-.16,2.24-.49h1.61a1.41,1.41,0,0,0,.64-.14,1.38,1.38,0,0,0,.49.14q3.15-1.34,5.61-5.93a25.7,25.7,0,0,0,.95-3.69V25.05c0-.18-.53-.33-1.58-.47l-.32.15h-1.12c-.44,0-.66-1.06-.66-3.2l-.78-.17H281.4V21c1.61-.09,2.79-.14,3.54-.14h2.39v-.17a13,13,0,0,0-4.81-6.57c-2.43-1.5-4.4-2.25-5.93-2.25q-6.72,0-10.92,6.89A13.67,13.67,0,0,0,264.55,22.49Zm8.67,6.42h.17c.21,0,.32.13.32.31v.49a.29.29,0,0,1-.32.32h-.17a.29.29,0,0,1-.32-.32v-.49C272.93,29,273,28.91,273.22,28.91Zm19.72-2.4-.14.32V27h.14a.29.29,0,0,1,.32-.32v-.15Z" transform="translate(0 -2.37)"/></svg>