<?xml version="1.0" encoding="utf-8"?>
<!-- Generator: Adobe Illustrator 23.0.6, SVG Export Plug-In . SVG Version: 6.00 Build 0)  -->
<svg version="1.1" id="linkedin" xmlns="http://www.w3.org/2000/svg" xmlns:xlink="http://www.w3.org/1999/xlink" x="0px" y="0px"
	 viewBox="0 0 64 64" style="enable-background:new 0 0 64 64;" xml:space="preserve">
<style type="text/css">
	.st0{fill:#FFFFFF;}
</style>
<path class="st0" d="M53.3,0H10.8C4.8,0,0,4.8,0,10.7v42.5C0,59.2,4.8,64,10.8,64h42.5C59.2,64,64,59.2,64,53.3V10.7
	C64,4.8,59.2,0,53.3,0z M24,52h-8V24h8V52z M20,20c-2.2,0-4-1.8-4-4s1.8-4,4-4s4,1.8,4,4S22.2,20,20,20z M52,52h-8V36
	c0-2.2-1.8-4-4-4s-4,1.8-4,4v16h-8V24h8v5c1.7-2.3,4.2-5,7-5c5,0,9,4.5,9,10V52z"/>
</svg>
